<svg xmlns="http://www.w3.org/2000/svg" width="325.28" height="60.36" viewBox="0 0 325.28 60.36"><g transform="translate(-6430.42 -577.24)"><path d="M13.68-20.04q-2.34,3.78-4.65,8.13T4.11-3.27Q1.5,1.02-1.47,4.98a42.113,42.113,0,0,1-6.57,6.99,30.213,30.213,0,0,1-7.95,4.83,25.118,25.118,0,0,1-9.69,1.8,20.5,20.5,0,0,1-3.84-.39,12.992,12.992,0,0,1-3.72-1.29,8.3,8.3,0,0,1-2.79-2.4,6.183,6.183,0,0,1-1.11-3.78,6.087,6.087,0,0,1,.75-3.06,7.017,7.017,0,0,1,1.98-2.22,9.329,9.329,0,0,1,2.79-1.38,10.754,10.754,0,0,1,3.18-.48q.84,0,1.53.06a9.509,9.509,0,0,1,1.23.18v.48a6.738,6.738,0,0,0-4.65,2.04A6.6,6.6,0,0,0-32.1,11.1a6.888,6.888,0,0,0,1.74,4.95q1.74,1.83,5.64,1.83a12.957,12.957,0,0,0,6.78-1.95,29.062,29.062,0,0,0,6.21-5.13A54.538,54.538,0,0,0-6.09,3.57Q-3.42-.48-.99-4.71t4.65-8.25q2.22-4.02,4.2-7.08H2.1l.6-1.08H8.58q1.74-3,4.11-6.6a48.037,48.037,0,0,1,5.34-6.72,30.352,30.352,0,0,1,6.51-5.22,14.573,14.573,0,0,1,7.56-2.1,9.745,9.745,0,0,1,2.43.3,7.091,7.091,0,0,1,2.1.9,4.764,4.764,0,0,1,1.5,1.53,4.107,4.107,0,0,1,.57,2.19,3.679,3.679,0,0,1-1.56,3.24,6.269,6.269,0,0,1-3.66,1.08,5.562,5.562,0,0,1-1.08-.12,14.23,14.23,0,0,0,.9-2.28,8.938,8.938,0,0,0,.36-2.58,4.154,4.154,0,0,0-.72-2.64,2.334,2.334,0,0,0-1.92-.9,5.633,5.633,0,0,0-3.18,1.17,18.313,18.313,0,0,0-3.3,3.03,48.813,48.813,0,0,0-3.21,4.14q-1.59,2.28-2.91,4.5t-2.37,4.11Q15-22.2,14.34-21.12H29.82l-.66,1.08Zm17.58-1.08q-2.82,4.44-4.86,7.59T23.07-8.16a40.576,40.576,0,0,0-1.92,3.63,6,6,0,0,0-.63,2.31,2.252,2.252,0,0,0,.27,1.17.884.884,0,0,0,.81.45,7.239,7.239,0,0,0,3.39-1.38,33.38,33.38,0,0,0,5.49-4.74Q31.8-8.1,33.06-9.45t2.37-2.61q1.11-1.26,1.98-2.28t1.41-1.62l.54.36q-.72.96-1.77,2.19t-2.25,2.58q-1.2,1.35-2.46,2.67T30.42-5.64A29.109,29.109,0,0,1,24.45-.78,9.59,9.59,0,0,1,19.86.6,4.139,4.139,0,0,1,16.8-.48,3.814,3.814,0,0,1,15.72-3.3a7.545,7.545,0,0,1,.45-2.49A20.984,20.984,0,0,1,17.7-9q1.08-1.92,2.88-4.77t4.5-7.05Zm3.48-13.32a2.808,2.808,0,0,1,2.01.84,2.664,2.664,0,0,1,.87,1.98,3.083,3.083,0,0,1-.96,2.19,2.944,2.944,0,0,1-2.16.99,3.8,3.8,0,0,1-2.28-.69,2.382,2.382,0,0,1-.96-2.07,2.961,2.961,0,0,1,1.05-2.31A3.554,3.554,0,0,1,34.74-34.44Zm4.32,24.12q.84-1.08,2.43-3.06a38.355,38.355,0,0,1,3.63-3.9,27.112,27.112,0,0,1,4.38-3.36,8.867,8.867,0,0,1,4.68-1.44,3.873,3.873,0,0,1,3,1.11,3.885,3.885,0,0,1,1.02,2.73,8.03,8.03,0,0,1-1.29,4.17q-1.29,2.13-2.85,4.26T51.21-5.73A6.686,6.686,0,0,0,49.92-2.1a1.816,1.816,0,0,0,.36,1.17,1.45,1.45,0,0,0,1.2.45,6.375,6.375,0,0,0,2.79-1.29,34.3,34.3,0,0,0,5.25-4.77q2.58-2.76,4.74-5.37t3.24-3.93l.6.3q-1.56,1.86-3.84,4.62T59.4-5.46A29.866,29.866,0,0,1,54.09-.78,8.386,8.386,0,0,1,49.56.6,4.189,4.189,0,0,1,46.2-.66a4.3,4.3,0,0,1-1.08-2.88,8.183,8.183,0,0,1,1.29-4.2,47.469,47.469,0,0,1,2.85-4.23q1.56-2.07,2.85-3.93a5.984,5.984,0,0,0,1.29-3.24,1.462,1.462,0,0,0-.42-1.08,1.711,1.711,0,0,0-1.26-.42,5.247,5.247,0,0,0-2.82,1.11,25.649,25.649,0,0,0-3.42,2.88,52.974,52.974,0,0,0-3.66,4.02q-1.86,2.25-3.51,4.5T35.34-3.78q-1.32,2.1-2.1,3.6L27.18,0q3.18-5.28,6.39-10.47T39.9-21.12l6.84-.24-7.8,10.92ZM97.56-41.4l6.72-.36q-1.98,3.24-4.53,7.17t-5.22,8.01q-2.67,4.08-5.25,8.07t-4.59,7.38q-2.01,3.39-3.24,5.91a9.866,9.866,0,0,0-1.23,3.66,1.679,1.679,0,0,0,.3,1.05,1.135,1.135,0,0,0,.96.39,7.671,7.671,0,0,0,3.45-1.26,23.114,23.114,0,0,0,4.89-4.08q2.22-2.28,4.26-4.71t4.44-5.61l.6.3q-.66.9-1.59,2.1t-2.01,2.52q-1.08,1.32-2.25,2.67T90.96-5.64a35.7,35.7,0,0,1-5.52,4.8A9.832,9.832,0,0,1,79.8.96,4.893,4.893,0,0,1,77.55.51,3.782,3.782,0,0,1,76.17-.66a3.532,3.532,0,0,1-.63-1.56,4.387,4.387,0,0,1,.06-1.62l-.12-.12A19.649,19.649,0,0,1,71.4-.72,9.787,9.787,0,0,1,66.3.6,5.262,5.262,0,0,1,63.87.09a4.525,4.525,0,0,1-1.62-1.38,5.591,5.591,0,0,1-.9-1.98,9.74,9.74,0,0,1-.27-2.31,12.729,12.729,0,0,1,1.56-5.97,20.339,20.339,0,0,1,4.02-5.31,21.184,21.184,0,0,1,5.46-3.78,13.642,13.642,0,0,1,5.94-1.44,5.294,5.294,0,0,1,5.4,3.84ZM69.78-1.44a6.159,6.159,0,0,0,3.99-1.83,21.88,21.88,0,0,0,3.78-4.44,28.472,28.472,0,0,0,2.79-5.43A13.975,13.975,0,0,0,81.42-18a3.269,3.269,0,0,0-.9-2.55,3.28,3.28,0,0,0-2.28-.81,6.088,6.088,0,0,0-3.87,1.71,20.906,20.906,0,0,0-3.69,4.17,25.5,25.5,0,0,0-2.76,5.28,14.308,14.308,0,0,0-1.08,5.04,5.055,5.055,0,0,0,.66,2.58A2.414,2.414,0,0,0,69.78-1.44Zm53.94-14.28q-1.86,2.52-3.99,4.98a63.77,63.77,0,0,1-5.07,5.16,25.459,25.459,0,0,1-7.95,5.13A20.7,20.7,0,0,1,99.54.96a7.176,7.176,0,0,1-5.4-2.04,7.263,7.263,0,0,1-1.98-5.28,10.756,10.756,0,0,1,1.74-5.7,20.91,20.91,0,0,1,4.38-5.04,23.775,23.775,0,0,1,5.79-3.6,14.9,14.9,0,0,1,5.97-1.38,7.027,7.027,0,0,1,4.02.99,3.191,3.191,0,0,1,1.44,2.79,4.055,4.055,0,0,1-.99,2.64,10.176,10.176,0,0,1-2.55,2.16,19.7,19.7,0,0,1-3.51,1.68q-1.95.72-3.87,1.26t-3.6.9q-1.68.36-2.76.6a9,9,0,0,0-.3,2.16,6.086,6.086,0,0,0,1.44,4.2,5.1,5.1,0,0,0,4.02,1.62,12.66,12.66,0,0,0,5.55-1.5,25.574,25.574,0,0,0,6.09-4.38q2.34-2.22,4.5-4.65t3.78-4.53ZM110.7-19.8a1.45,1.45,0,0,0-.45-1.2,1.816,1.816,0,0,0-1.17-.36,5.642,5.642,0,0,0-3.24,1.26,18.177,18.177,0,0,0-3.27,3.09,27.73,27.73,0,0,0-2.7,3.84,13.53,13.53,0,0,0-1.53,3.51,18.215,18.215,0,0,0,4.68-1.59,20.7,20.7,0,0,0,3.93-2.52,13.085,13.085,0,0,0,2.73-3A5.648,5.648,0,0,0,110.7-19.8ZM111.72,0q3.06-5.28,6.21-10.5t6.27-10.62l6.84-.24L123.12-10.2l.12.12a50.908,50.908,0,0,1,4.05-4.53q1.77-1.71,3.09-2.79a23.787,23.787,0,0,1,2.22-1.65,7.958,7.958,0,0,0,1.32-.99,8.87,8.87,0,0,1,1.23-1.05,4.393,4.393,0,0,1,1.35-.6,9.3,9.3,0,0,1,1.89-.27q1.11-.06,2.79-.12a34.3,34.3,0,0,0-2.1,3.39,7.868,7.868,0,0,0-.96,3.81,2.28,2.28,0,0,0,2.58,2.58,4.026,4.026,0,0,0,1.65-.36,7.872,7.872,0,0,0,1.53-.9,15.244,15.244,0,0,0,1.38-1.17q.66-.63,1.2-1.17l.24.3a14.055,14.055,0,0,1-3.96,3.42,9.765,9.765,0,0,1-4.98,1.32,5.4,5.4,0,0,1-3.78-1.26,4.786,4.786,0,0,1-1.38-3.72,5.289,5.289,0,0,1,.9-2.94l-.12-.12a33.593,33.593,0,0,0-4.8,3.9,49.091,49.091,0,0,0-4.23,4.68,58.368,58.368,0,0,0-3.6,5.07q-1.65,2.61-2.97,5.07Z" transform="translate(6609 619)" fill="#818aa7"/><path d="M28.44-7.56A14.214,14.214,0,0,1,18.36-3.42c-6.42,0-9.96-4.5-10.14-10.02H32.4a12.051,12.051,0,0,0,.06-1.44C32.4-24.9,24.96-29.04,18.3-29.04c-8.64,0-14.88,6.72-14.88,15.24C3.42-5.76,8.76.84,17.88.84A20.163,20.163,0,0,0,31.62-4.44ZM18.06-25.02c4.26,0,9,2.52,9.12,7.8H8.58C9.66-21.6,13.02-25.02,18.06-25.02Zm42.72-.66a25.7,25.7,0,0,0-12.54-3.48c-5.34,0-11.46,2.1-11.46,8.7,0,7.02,6.9,7.5,12.72,7.86,3.42.18,8.46.54,8.46,4.44,0,3.36-3.72,5.1-8.46,5.1A20.877,20.877,0,0,1,37.62-7.08l-1.86,3.6A23.351,23.351,0,0,0,49.56.9c7.32,0,13.2-3,13.2-9.54,0-7.86-8.34-8.28-13.26-8.52-3.18-.12-7.98-.42-7.98-3.84,0-2.94,3.48-4.14,6.78-4.14a22.082,22.082,0,0,1,10.62,3.12Zm32.7,1.26A17.972,17.972,0,0,0,81.3-29.04c-8.28,0-15.12,5.94-15.12,14.88,0,9.12,6.96,15,15.06,15a17.369,17.369,0,0,0,12.9-5.4l-3.24-3a12.889,12.889,0,0,1-9.24,4.14c-5.58,0-10.2-4.2-10.2-10.74,0-6.48,4.44-10.68,9.84-10.68a12.778,12.778,0,0,1,8.94,3.66Zm3.54,10.26a14.686,14.686,0,0,0,15.06,15,14.7,14.7,0,0,0,15.12-15,14.674,14.674,0,0,0-15.12-14.88A14.659,14.659,0,0,0,97.02-14.16Zm4.98,0c0-5.82,4.02-10.86,10.08-10.86,6.12,0,10.2,5.04,10.2,10.86,0,6-4.08,10.98-10.2,10.98C106.02-3.18,102-8.16,102-14.16ZM138.06,0V-19.2c1.68-2.4,3.9-5.16,6.96-5.16a6.991,6.991,0,0,1,3.78,1.14l1.56-4.38a5.81,5.81,0,0,0-4.26-1.44c-4.14,0-6.66,2.88-8.58,5.76a20.667,20.667,0,0,0-.66-4.86h-4.44a29.706,29.706,0,0,1,.84,7.14V0Zm12.12-24.42h5.52V-6.96c0,6,4.26,7.98,7.8,7.98,2.16,0,5.04-.6,6.18-1.38l-.6-3.72a12.718,12.718,0,0,1-4.68.9c-2.16,0-3.9-1.14-3.9-3.78V-24.42h8.46v-3.72H160.5v-8.52h-4.8v8.52h-5.52Z" transform="translate(6427 619)" fill="#f25781"/></g></svg>