<svg xmlns="http://www.w3.org/2000/svg" width="812.902" height="150.845" viewBox="0 0 812.902 150.845"><g transform="translate(-6430.42 -577.24)"><path d="M89.863,12.52q-5.848,9.447-11.621,20.318T65.947,54.43Q59.425,65.151,52,75.047A105.243,105.243,0,0,1,35.583,92.516a75.5,75.5,0,0,1-19.868,12.071,62.771,62.771,0,0,1-24.216,4.5,51.223,51.223,0,0,1-9.6-.975,32.467,32.467,0,0,1-9.3-3.224,20.732,20.732,0,0,1-6.972-6,15.452,15.452,0,0,1-2.774-9.447,15.212,15.212,0,0,1,1.874-7.647,17.536,17.536,0,0,1,4.948-5.548A23.314,23.314,0,0,1-23.345,72.8,26.877,26.877,0,0,1-15.4,71.6q2.1,0,3.824.15A23.764,23.764,0,0,1-8.5,72.2v1.2a16.839,16.839,0,0,0-11.621,5.1,16.489,16.489,0,0,0-4.423,11.846q0,7.8,4.348,12.37T-6.1,107.285a32.381,32.381,0,0,0,16.944-4.873,72.629,72.629,0,0,0,15.519-12.82A136.3,136.3,0,0,0,40.457,71.523Q47.129,61.4,53.2,50.831T64.823,30.214q5.548-10.046,10.5-17.694H60.924l1.5-2.7H77.118q4.348-7.5,10.271-16.494a120.05,120.05,0,0,1,13.345-16.794A75.852,75.852,0,0,1,117-36.512,36.42,36.42,0,0,1,135.9-41.76a24.354,24.354,0,0,1,6.073.75,17.723,17.723,0,0,1,5.248,2.249,11.906,11.906,0,0,1,3.749,3.824,10.265,10.265,0,0,1,1.424,5.473q0,5.4-3.9,8.1a15.668,15.668,0,0,1-9.147,2.7,13.9,13.9,0,0,1-2.7-.3,35.561,35.561,0,0,0,2.249-5.7,22.337,22.337,0,0,0,.9-6.448q0-4.348-1.8-6.6a5.833,5.833,0,0,0-4.8-2.249,14.078,14.078,0,0,0-7.947,2.924A45.767,45.767,0,0,0,117-29.465a121.989,121.989,0,0,0-8.022,10.346q-3.974,5.7-7.272,11.246T95.786,2.4q-2.624,4.723-4.273,7.422H130.2l-1.649,2.7Zm43.934-2.7q-7.047,11.1-12.146,18.968t-8.322,13.42a101.4,101.4,0,0,0-4.8,9.072,14.994,14.994,0,0,0-1.574,5.773,5.627,5.627,0,0,0,.675,2.924,2.209,2.209,0,0,0,2.024,1.125q3,0,8.472-3.449t13.72-11.846q3.3-3.449,6.448-6.822t5.923-6.523q2.774-3.149,4.948-5.7t3.524-4.049l1.35.9q-1.8,2.4-4.423,5.473t-5.623,6.448q-3,3.374-6.148,6.673t-6.148,6.3q-8.7,8.7-14.92,12.146T105.308,64.1q-4.948,0-7.647-2.7a9.531,9.531,0,0,1-2.7-7.047,18.857,18.857,0,0,1,1.125-6.223A52.442,52.442,0,0,1,99.91,40.11q2.7-4.8,7.2-11.921t11.246-17.619Zm8.7-33.288a7.018,7.018,0,0,1,5.023,2.1,6.657,6.657,0,0,1,2.174,4.948,7.7,7.7,0,0,1-2.4,5.473,7.356,7.356,0,0,1-5.4,2.474,9.5,9.5,0,0,1-5.7-1.724,5.954,5.954,0,0,1-2.4-5.173,7.4,7.4,0,0,1,2.624-5.773A8.883,8.883,0,0,1,142.494-23.467Zm10.8,60.278q2.1-2.7,6.073-7.647a95.852,95.852,0,0,1,9.072-9.746,67.757,67.757,0,0,1,10.946-8.4,22.158,22.158,0,0,1,11.7-3.6q4.948,0,7.5,2.774a9.709,9.709,0,0,1,2.549,6.822A20.067,20.067,0,0,1,197.9,27.44q-3.224,5.323-7.122,10.646t-7.122,10.2q-3.224,4.873-3.224,9.072a4.538,4.538,0,0,0,.9,2.924,3.623,3.623,0,0,0,3,1.125q2.1,0,6.972-3.224t13.12-11.921q6.448-6.9,11.846-13.42t8.1-9.821l1.5.75q-3.9,4.648-9.6,11.546T204.122,48.957q-7.8,8.247-13.27,11.7A20.958,20.958,0,0,1,179.531,64.1q-5.7,0-8.4-3.149a10.746,10.746,0,0,1-2.7-7.2,20.449,20.449,0,0,1,3.224-10.5,118.63,118.63,0,0,1,7.122-10.571q3.9-5.173,7.122-9.821t3.224-8.1a3.653,3.653,0,0,0-1.05-2.7,4.277,4.277,0,0,0-3.149-1.05q-3,0-7.047,2.774a64.1,64.1,0,0,0-8.547,7.2,132.386,132.386,0,0,0-9.147,10.046q-4.648,5.623-8.772,11.246t-7.422,10.871q-3.3,5.248-5.248,9L123.6,62.6q7.947-13.2,15.969-26.165T155.389,9.821l17.094-.6L152.99,36.511Zm146.2-77.672,16.794-.9q-4.948,8.1-11.321,17.918T291.914-3.824q-6.673,10.2-13.12,20.168T267.323,34.787q-5.023,8.472-8.1,14.77T256.152,58.7a4.2,4.2,0,0,0,.75,2.624,2.836,2.836,0,0,0,2.4.975q3.149,0,8.622-3.149a57.764,57.764,0,0,0,12.221-10.2q5.548-5.7,10.646-11.771t11.1-14.02l1.5.75q-1.649,2.249-3.974,5.248t-5.023,6.3q-2.7,3.3-5.623,6.673t-5.773,6.373a89.228,89.228,0,0,1-13.795,12A24.571,24.571,0,0,1,255.1,65a12.228,12.228,0,0,1-5.623-1.125,9.452,9.452,0,0,1-3.449-2.924,8.826,8.826,0,0,1-1.574-3.9,10.964,10.964,0,0,1,.15-4.049l-.3-.3a49.1,49.1,0,0,1-10.2,8.1,24.458,24.458,0,0,1-12.745,3.3,13.149,13.149,0,0,1-6.073-1.275,11.308,11.308,0,0,1-4.049-3.449,13.971,13.971,0,0,1-2.249-4.948,24.341,24.341,0,0,1-.675-5.773,31.811,31.811,0,0,1,3.9-14.92,50.829,50.829,0,0,1,10.046-13.27,52.94,52.94,0,0,1,13.645-9.447,34.094,34.094,0,0,1,14.845-3.6q10.046,0,13.5,9.6ZM230.062,59q4.8,0,9.971-4.573a54.68,54.68,0,0,0,9.447-11.1,71.154,71.154,0,0,0,6.972-13.57,34.925,34.925,0,0,0,2.7-12.146q0-4.348-2.249-6.373a8.2,8.2,0,0,0-5.7-2.024q-4.648,0-9.671,4.273a52.245,52.245,0,0,0-9.222,10.421,63.716,63.716,0,0,0-6.9,13.2,35.758,35.758,0,0,0-2.7,12.6,12.632,12.632,0,0,0,1.649,6.448Q226.013,59,230.062,59Zm134.8-35.687q-4.648,6.3-9.971,12.445a159.37,159.37,0,0,1-12.67,12.9q-10.346,9.3-19.868,12.82A51.74,51.74,0,0,1,304.435,65q-8.547,0-13.5-5.1t-4.948-13.2a26.879,26.879,0,0,1,4.348-14.245,52.257,52.257,0,0,1,10.946-12.6,59.417,59.417,0,0,1,14.47-9,37.235,37.235,0,0,1,14.92-3.449q6.448,0,10.046,2.474a7.975,7.975,0,0,1,3.6,6.972,10.135,10.135,0,0,1-2.474,6.6,25.43,25.43,0,0,1-6.373,5.4,49.235,49.235,0,0,1-8.772,4.2q-4.873,1.8-9.671,3.149t-9,2.249q-4.2.9-6.9,1.5a22.487,22.487,0,0,0-.75,5.4,15.208,15.208,0,0,0,3.6,10.5q3.6,4.049,10.046,4.049,6.3,0,13.87-3.749a63.911,63.911,0,0,0,15.219-10.946q5.848-5.548,11.246-11.621t9.447-11.321Zm-32.538-10.2a3.623,3.623,0,0,0-1.125-3,4.538,4.538,0,0,0-2.924-.9q-3.749,0-8.1,3.149a45.425,45.425,0,0,0-8.172,7.722,69.3,69.3,0,0,0-6.748,9.6,33.814,33.814,0,0,0-3.824,8.772,45.522,45.522,0,0,0,11.7-3.974,51.721,51.721,0,0,0,9.821-6.3,32.7,32.7,0,0,0,6.822-7.5A14.116,14.116,0,0,0,332.324,13.12ZM334.874,62.6q7.647-13.2,15.519-26.24t15.669-26.54l17.094-.6-19.793,27.89.3.3A127.223,127.223,0,0,1,373.784,26.09q4.423-4.273,7.722-6.972a59.441,59.441,0,0,1,5.548-4.123,19.889,19.889,0,0,0,3.3-2.474A22.163,22.163,0,0,1,393.427,9.9,10.979,10.979,0,0,1,396.8,8.4a23.249,23.249,0,0,1,4.723-.675q2.774-.15,6.972-.3a85.725,85.725,0,0,0-5.248,8.472,19.662,19.662,0,0,0-2.4,9.522q0,6.448,6.448,6.448a10.062,10.062,0,0,0,4.124-.9,19.672,19.672,0,0,0,3.824-2.249,38.092,38.092,0,0,0,3.449-2.924q1.649-1.574,3-2.924l.6.75a35.125,35.125,0,0,1-9.9,8.547,24.4,24.4,0,0,1-12.445,3.3q-6,0-9.447-3.149t-3.449-9.3a13.217,13.217,0,0,1,2.249-7.347l-.3-.3a83.953,83.953,0,0,0-12,9.746,122.682,122.682,0,0,0-10.571,11.7,145.87,145.87,0,0,0-9,12.67q-4.123,6.523-7.422,12.67Z" transform="translate(6821.03 619)" fill="#fff"/><path d="M65.947,36.063A35.523,35.523,0,0,1,40.756,46.41c-16.044,0-24.891-11.246-25.341-25.041H75.843a30.117,30.117,0,0,0,.15-3.6C75.843-7.271,57.25-17.617,40.606-17.617,19.014-17.617,3.42-.823,3.42,20.469c0,20.093,13.345,36.587,36.137,36.587,14.245,0,26.69-5.848,34.337-13.2ZM40.007-7.571c10.646,0,22.492,6.3,22.792,19.493H16.315C19.014.976,27.411-7.571,40.007-7.571ZM146.767-9.22c-5.4-3.449-17.993-8.7-31.338-8.7S86.789-12.669,86.789,3.825c0,17.544,17.244,18.743,31.788,19.643,8.547.45,21.142,1.35,21.142,11.1,0,8.4-9.3,12.745-21.142,12.745-13.5,0-23.092-5.7-29.689-10.046l-4.648,9a58.357,58.357,0,0,0,34.487,10.946c18.293,0,32.988-7.5,32.988-23.841,0-19.643-20.842-20.692-33.138-21.292-7.947-.3-19.943-1.05-19.943-9.6,0-7.347,8.7-10.346,16.944-10.346,10.946,0,21.742,4.8,26.54,7.8Zm81.72,3.149a44.914,44.914,0,0,0-30.439-11.546c-20.692,0-37.786,14.845-37.786,37.186,0,22.792,17.394,37.486,37.636,37.486,18.143,0,29.389-10.046,32.238-13.5l-8.1-7.5c-4.648,4.8-12.445,10.346-23.092,10.346-13.945,0-25.491-10.5-25.491-26.84,0-16.194,11.1-26.69,24.591-26.69A31.933,31.933,0,0,1,220.39,2.026Zm8.847,25.641c0,20.992,15.744,37.486,37.636,37.486,22.042,0,37.786-16.494,37.786-37.486,0-20.692-15.744-37.186-37.786-37.186C253.078-17.617,237.334-1.123,237.334,19.569Zm12.445,0c0-14.545,10.046-27.14,25.191-27.14,15.294,0,25.491,12.6,25.491,27.14,0,14.994-10.2,27.44-25.491,27.44C259.826,47.009,249.78,34.564,249.78,19.569ZM339.9,54.956V6.974c4.2-6,9.746-12.9,17.394-12.9,2.7,0,7.347,1.05,9.447,2.849l3.9-10.946c-2.1-2.4-6.3-3.6-10.646-3.6-10.346,0-16.644,7.2-21.442,14.395A51.649,51.649,0,0,0,336.9-15.368H325.8a74.239,74.239,0,0,1,2.1,17.843V54.956ZM370.186-6.071H383.98V37.563c0,14.995,10.646,19.943,19.493,19.943,5.4,0,12.6-1.5,15.444-3.449l-1.5-9.3c-2.1,1.2-7.947,2.249-11.7,2.249-5.4,0-9.746-2.849-9.746-9.447V-6.071h21.142v-9.3H395.976V-36.66h-12v21.292H370.186Z" transform="translate(6427 626.645)" fill="#c451cf"/></g></svg>